<?xml version='1.0' encoding='utf-8'?>
<svg xmlns="http://www.w3.org/2000/svg" version="1.1" width="685" height="129" viewBox="0 0 685 129" role="img" aria-labelledby="title">
  <title id="title">axodusInstitutional</title>
  <desc>Vector paths traced from the supplied Axodus PNG. Transparent background. No embedded raster images or external fonts.</desc>
  <g id="cyan" fill="#02dffd" transform="scale(0.25)">
    <path d="M0 0 C22.44 0 44.88 0 68 0 C68 1.32 68 2.64 68 4 C69.32 4 70.64 4 72 4 C72 6.64 72 9.28 72 12 C73.32 12 74.64 12 76 12 C76 14.64 76 17.28 76 20 C77.32 20 78.64 20 80 20 C80 21.32 80 22.64 80 24 C81.32 24 82.64 24 84 24 C84 26.64 84 29.28 84 32 C85.32 32 86.64 32 88 32 C88 33.32 88 34.64 88 36 C89.32 36 90.64 36 92 36 C92 38.64 92 41.28 92 44 C93.32 44 94.64 44 96 44 C96 46.64 96 49.28 96 52 C97.32 52 98.64 52 100 52 C100 53.32 100 54.64 100 56 C101.32 56 102.64 56 104 56 C104 58.64 104 61.28 104 64 C105.32 64 106.64 64 108 64 C108 65.32 108 66.64 108 68 C109.32 68 110.64 68 112 68 C112 70.64 112 73.28 112 76 C113.32 76 114.64 76 116 76 C116 77.32 116 78.64 116 80 C117.32 80 118.64 80 120 80 C120 82.64 120 85.28 120 88 C121.32 88 122.64 88 124 88 C124 90.64 124 93.28 124 96 C125.32 96 126.64 96 128 96 C128 97.32 128 98.64 128 100 C129.32 100 130.64 100 132 100 C132 102.64 132 105.28 132 108 C133.32 108 134.64 108 136 108 C136 109.32 136 110.64 136 112 C137.32 112 138.64 112 140 112 C140 114.64 140 117.28 140 120 C142.64 120 145.28 120 148 120 C148 122.64 148 125.28 148 128 C149.32 128 150.64 128 152 128 C152 130.64 152 133.28 152 136 C153.32 136 154.64 136 156 136 C156 137.32 156 138.64 156 140 C157.32 140 158.64 140 160 140 C160 142.64 160 145.28 160 148 C161.32 148 162.64 148 164 148 C164 149.32 164 150.64 164 152 C165.32 152 166.64 152 168 152 C168 154.64 168 157.28 168 160 C169.32 160 170.64 160 172 160 C172 162.64 172 165.28 172 168 C174.64 168 177.28 168 180 168 C180 171.96 180 175.92 180 180 C181.32 180 182.64 180 184 180 C184 182.64 184 185.28 184 188 C185.32 188 186.64 188 188 188 C188 189.32 188 190.64 188 192 C189.32 192 190.64 192 192 192 C192 194.64 192 197.28 192 200 C193.32 200 194.64 200 196 200 C196 201.32 196 202.64 196 204 C197.32 204 198.64 204 200 204 C200 206.64 200 209.28 200 212 C201.32 212 202.64 212 204 212 C204 214.64 204 217.28 204 220 C205.32 220 206.64 220 208 220 C208 221.32 208 222.64 208 224 C209.32 224 210.64 224 212 224 C212 226.64 212 229.28 212 232 C213.32 232 214.64 232 216 232 C216 234.64 216 237.28 216 240 C217.32 240 218.64 240 220 240 C220 241.32 220 242.64 220 244 C221.32 244 222.64 244 224 244 C224 246.64 224 249.28 224 252 C225.32 252 226.64 252 228 252 C228 253.32 228 254.64 228 256 C229.32 256 230.64 256 232 256 C232 258.64 232 261.28 232 264 C233.32 264 234.64 264 236 264 C236 265.32 236 266.64 236 268 C237.32 268 238.64 268 240 268 C240 270.64 240 273.28 240 276 C241.32 276 242.64 276 244 276 C244 278.64 244 281.28 244 284 C245.32 284 246.64 284 248 284 C248 285.32 248 286.64 248 288 C249.32 288 250.64 288 252 288 C252 290.64 252 293.28 252 296 C253.32 296 254.64 296 256 296 C256 297.32 256 298.64 256 300 C257.32 300 258.64 300 260 300 C260 302.64 260 305.28 260 308 C237.56 308 215.12 308 192 308 C192 306.68 192 305.36 192 304 C190.68 304 189.36 304 188 304 C188 301.36 188 298.72 188 296 C186.68 296 185.36 296 184 296 C184 293.36 184 290.72 184 288 C182.68 288 181.36 288 180 288 C180 286.68 180 285.36 180 284 C178.68 284 177.36 284 176 284 C176 281.36 176 278.72 176 276 C174.68 276 173.36 276 172 276 C172 274.68 172 273.36 172 272 C170.68 272 169.36 272 168 272 C168 269.36 168 266.72 168 264 C166.68 264 165.36 264 164 264 C164 261.36 164 258.72 164 256 C162.68 256 161.36 256 160 256 C160 254.68 160 253.36 160 252 C158.68 252 157.36 252 156 252 C156 249.36 156 246.72 156 244 C154.68 244 153.36 244 152 244 C152 241.36 152 238.72 152 236 C150.68 236 149.36 236 148 236 C148 234.68 148 233.36 148 232 C146.68 232 145.36 232 144 232 C144 229.36 144 226.72 144 224 C142.68 224 141.36 224 140 224 C140 222.68 140 221.36 140 220 C138.68 220 137.36 220 136 220 C136 217.36 136 214.72 136 212 C134.68 212 133.36 212 132 212 C132 210.68 132 209.36 132 208 C130.68 208 129.36 208 128 208 C128 205.36 128 202.72 128 200 C126.68 200 125.36 200 124 200 C124 197.36 124 194.72 124 192 C122.68 192 121.36 192 120 192 C120 190.68 120 189.36 120 188 C118.68 188 117.36 188 116 188 C116 185.36 116 182.72 116 180 C114.68 180 113.36 180 112 180 C112 178.68 112 177.36 112 176 C110.68 176 109.36 176 108 176 C108 173.36 108 170.72 108 168 C106.68 168 105.36 168 104 168 C104 166.68 104 165.36 104 164 C102.68 164 101.36 164 100 164 C100 161.36 100 158.72 100 156 C98.68 156 97.36 156 96 156 C96 153.36 96 150.72 96 148 C94.68 148 93.36 148 92 148 C92 146.68 92 145.36 92 144 C90.68 144 89.36 144 88 144 C88 141.36 88 138.72 88 136 C86.68 136 85.36 136 84 136 C84 133.36 84 130.72 84 128 C82.68 128 81.36 128 80 128 C80 126.68 80 125.36 80 124 C78.68 124 77.36 124 76 124 C76 121.36 76 118.72 76 116 C74.68 116 73.36 116 72 116 C72 114.68 72 113.36 72 112 C70.68 112 69.36 112 68 112 C68 109.36 68 106.72 68 104 C66.68 104 65.36 104 64 104 C64 102.68 64 101.36 64 100 C62.68 100 61.36 100 60 100 C60 97.36 60 94.72 60 92 C58.68 92 57.36 92 56 92 C56 89.36 56 86.72 56 84 C54.68 84 53.36 84 52 84 C52 82.68 52 81.36 52 80 C50.68 80 49.36 80 48 80 C48 77.36 48 74.72 48 72 C46.68 72 45.36 72 44 72 C44 69.36 44 66.72 44 64 C40.04 64 36.08 64 32 64 C32 65.32 32 66.64 32 68 C30.68 68 29.36 68 28 68 C28 70.64 28 73.28 28 76 C26.68 76 25.36 76 24 76 C24 78.64 24 81.28 24 84 C22.68 84 21.36 84 20 84 C20 86.64 20 89.28 20 92 C18.68 92 17.36 92 16 92 C16 94.64 16 97.28 16 100 C14.68 100 13.36 100 12 100 C12 101.32 12 102.64 12 104 C10.68 104 9.36 104 8 104 C8 106.64 8 109.28 8 112 C6.68 112 5.36 112 4 112 C4 114.64 4 117.28 4 120 C2.68 120 1.36 120 0 120 C0 122.64 0 125.28 0 128 C-1.32 128 -2.64 128 -4 128 C-4 130.64 -4 133.28 -4 136 C-5.32 136 -6.64 136 -8 136 C-8 138.64 -8 141.28 -8 144 C-9.32 144 -10.64 144 -12 144 C-12 146.64 -12 149.28 -12 152 C-13.32 152 -14.64 152 -16 152 C-16 154.64 -16 157.28 -16 160 C-17.32 160 -18.64 160 -20 160 C-20 162.64 -20 165.28 -20 168 C-21.32 168 -22.64 168 -24 168 C-24 170.64 -24 173.28 -24 176 C-25.32 176 -26.64 176 -28 176 C-28 177.32 -28 178.64 -28 180 C-29.32 180 -30.64 180 -32 180 C-32 182.64 -32 185.28 -32 188 C-33.32 188 -34.64 188 -36 188 C-36 190.64 -36 193.28 -36 196 C-37.32 196 -38.64 196 -40 196 C-40 198.64 -40 201.28 -40 204 C-41.32 204 -42.64 204 -44 204 C-44 206.64 -44 209.28 -44 212 C-45.32 212 -46.64 212 -48 212 C-48 214.64 -48 217.28 -48 220 C-49.32 220 -50.64 220 -52 220 C-52 222.64 -52 225.28 -52 228 C-53.32 228 -54.64 228 -56 228 C-56 230.64 -56 233.28 -56 236 C-57.32 236 -58.64 236 -60 236 C-60 238.64 -60 241.28 -60 244 C-61.32 244 -62.64 244 -64 244 C-64 249.28 -64 254.56 -64 260 C-53.44 260 -42.88 260 -32 260 C-32 261.32 -32 262.64 -32 264 C-20.12 264 -8.24 264 4 264 C4 265.32 4 266.64 4 268 C2.68 268 1.36 268 0 268 C0 270.64 0 273.28 0 276 C-1.32 276 -2.64 276 -4 276 C-4 278.64 -4 281.28 -4 284 C-5.32 284 -6.64 284 -8 284 C-8 285.32 -8 286.64 -8 288 C-9.32 288 -10.64 288 -12 288 C-12 290.64 -12 293.28 -12 296 C-13.32 296 -14.64 296 -16 296 C-16 298.64 -16 301.28 -16 304 C-19.96 304 -23.92 304 -28 304 C-28 305.32 -28 306.64 -28 308 C-68.92 308 -109.84 308 -152 308 C-152 306.68 -152 305.36 -152 304 C-153.32 304 -154.64 304 -156 304 C-156 300.04 -156 296.08 -156 292 C-154.68 292 -153.36 292 -152 292 C-152 289.36 -152 286.72 -152 284 C-150.68 284 -149.36 284 -148 284 C-148 281.36 -148 278.72 -148 276 C-146.68 276 -145.36 276 -144 276 C-144 273.36 -144 270.72 -144 268 C-142.68 268 -141.36 268 -140 268 C-140 265.36 -140 262.72 -140 260 C-138.68 260 -137.36 260 -136 260 C-136 257.36 -136 254.72 -136 252 C-134.68 252 -133.36 252 -132 252 C-132 250.68 -132 249.36 -132 248 C-130.68 248 -129.36 248 -128 248 C-128 245.36 -128 242.72 -128 240 C-126.68 240 -125.36 240 -124 240 C-124 237.36 -124 234.72 -124 232 C-122.68 232 -121.36 232 -120 232 C-120 229.36 -120 226.72 -120 224 C-118.68 224 -117.36 224 -116 224 C-116 221.36 -116 218.72 -116 216 C-114.68 216 -113.36 216 -112 216 C-112 213.36 -112 210.72 -112 208 C-110.68 208 -109.36 208 -108 208 C-108 205.36 -108 202.72 -108 200 C-106.68 200 -105.36 200 -104 200 C-104 197.36 -104 194.72 -104 192 C-102.68 192 -101.36 192 -100 192 C-100 189.36 -100 186.72 -100 184 C-98.68 184 -97.36 184 -96 184 C-96 181.36 -96 178.72 -96 176 C-94.68 176 -93.36 176 -92 176 C-92 173.36 -92 170.72 -92 168 C-90.68 168 -89.36 168 -88 168 C-88 165.36 -88 162.72 -88 160 C-86.68 160 -85.36 160 -84 160 C-84 157.36 -84 154.72 -84 152 C-82.68 152 -81.36 152 -80 152 C-80 149.36 -80 146.72 -80 144 C-78.68 144 -77.36 144 -76 144 C-76 142.68 -76 141.36 -76 140 C-74.68 140 -73.36 140 -72 140 C-72 137.36 -72 134.72 -72 132 C-70.68 132 -69.36 132 -68 132 C-68 129.36 -68 126.72 -68 124 C-66.68 124 -65.36 124 -64 124 C-64 121.36 -64 118.72 -64 116 C-62.68 116 -61.36 116 -60 116 C-60 113.36 -60 110.72 -60 108 C-58.68 108 -57.36 108 -56 108 C-56 106.68 -56 105.36 -56 104 C-54.68 104 -53.36 104 -52 104 C-52 101.36 -52 98.72 -52 96 C-50.68 96 -49.36 96 -48 96 C-48 93.36 -48 90.72 -48 88 C-46.68 88 -45.36 88 -44 88 C-44 85.36 -44 82.72 -44 80 C-42.68 80 -41.36 80 -40 80 C-40 77.36 -40 74.72 -40 72 C-38.68 72 -37.36 72 -36 72 C-36 69.36 -36 66.72 -36 64 C-34.68 64 -33.36 64 -32 64 C-32 61.36 -32 58.72 -32 56 C-30.68 56 -29.36 56 -28 56 C-28 53.36 -28 50.72 -28 48 C-26.68 48 -25.36 48 -24 48 C-24 45.36 -24 42.72 -24 40 C-22.68 40 -21.36 40 -20 40 C-20 37.36 -20 34.72 -20 32 C-18.68 32 -17.36 32 -16 32 C-16 30.68 -16 29.36 -16 28 C-14.68 28 -13.36 28 -12 28 C-12 25.36 -12 22.72 -12 20 C-10.68 20 -9.36 20 -8 20 C-8 17.36 -8 14.72 -8 12 C-6.68 12 -5.36 12 -4 12 C-4 9.36 -4 6.72 -4 4 C-2.68 4 -1.36 4 0 4 C0 2.68 0 1.36 0 0 Z " transform="translate(176,104)" />
  </g>
  <g id="white" fill="#ffffff" transform="scale(0.25)">
    <path d="M0 0 C18.48 0 36.96 0 56 0 C56 105.6 56 211.2 56 320 C46.76 320 37.52 320 28 320 C28 321.32 28 322.64 28 324 C-6.32 324 -40.64 324 -76 324 C-76 322.68 -76 321.36 -76 320 C-81.28 320 -86.56 320 -92 320 C-92 318.68 -92 317.36 -92 316 C-95.96 316 -99.92 316 -104 316 C-104 314.68 -104 313.36 -104 312 C-106.64 312 -109.28 312 -112 312 C-112 310.68 -112 309.36 -112 308 C-114.64 308 -117.28 308 -120 308 C-120 306.68 -120 305.36 -120 304 C-121.32 304 -122.64 304 -124 304 C-124 302.68 -124 301.36 -124 300 C-125.32 300 -126.64 300 -128 300 C-128 298.68 -128 297.36 -128 296 C-129.32 296 -130.64 296 -132 296 C-132 294.68 -132 293.36 -132 292 C-133.32 292 -134.64 292 -136 292 C-136 290.68 -136 289.36 -136 288 C-137.32 288 -138.64 288 -140 288 C-140 286.68 -140 285.36 -140 284 C-141.32 284 -142.64 284 -144 284 C-144 282.68 -144 281.36 -144 280 C-145.32 280 -146.64 280 -148 280 C-148 277.36 -148 274.72 -148 272 C-149.32 272 -150.64 272 -152 272 C-152 269.36 -152 266.72 -152 264 C-153.32 264 -154.64 264 -156 264 C-156 261.36 -156 258.72 -156 256 C-157.32 256 -158.64 256 -160 256 C-160 252.04 -160 248.08 -160 244 C-161.32 244 -162.64 244 -164 244 C-164 234.76 -164 225.52 -164 216 C-165.32 216 -166.64 216 -168 216 C-168 214.68 -168 213.36 -168 212 C-166.68 212 -165.36 212 -164 212 C-164 202.76 -164 193.52 -164 184 C-162.68 184 -161.36 184 -160 184 C-160 178.72 -160 173.44 -160 168 C-158.68 168 -157.36 168 -156 168 C-156 165.36 -156 162.72 -156 160 C-154.68 160 -153.36 160 -152 160 C-152 157.36 -152 154.72 -152 152 C-150.68 152 -149.36 152 -148 152 C-148 150.68 -148 149.36 -148 148 C-146.68 148 -145.36 148 -144 148 C-144 145.36 -144 142.72 -144 140 C-142.68 140 -141.36 140 -140 140 C-140 138.68 -140 137.36 -140 136 C-138.68 136 -137.36 136 -136 136 C-136 134.68 -136 133.36 -136 132 C-134.68 132 -133.36 132 -132 132 C-132 130.68 -132 129.36 -132 128 C-129.36 128 -126.72 128 -124 128 C-124 126.68 -124 125.36 -124 124 C-122.68 124 -121.36 124 -120 124 C-120 122.68 -120 121.36 -120 120 C-118.68 120 -117.36 120 -116 120 C-116 118.68 -116 117.36 -116 116 C-113.36 116 -110.72 116 -108 116 C-108 114.68 -108 113.36 -108 112 C-105.36 112 -102.72 112 -100 112 C-100 110.68 -100 109.36 -100 108 C-97.36 108 -94.72 108 -92 108 C-92 106.68 -92 105.36 -92 104 C-86.72 104 -81.44 104 -76 104 C-76 102.68 -76 101.36 -76 100 C-58.84 100 -41.68 100 -24 100 C-24 101.32 -24 102.64 -24 104 C-18.72 104 -13.44 104 -8 104 C-8 105.32 -8 106.64 -8 108 C-5.36 108 -2.72 108 0 108 C0 72.36 0 36.72 0 0 Z M-64 148 C-64 149.32 -64 150.64 -64 152 C-66.64 152 -69.28 152 -72 152 C-72 153.32 -72 154.64 -72 156 C-74.64 156 -77.28 156 -80 156 C-80 157.32 -80 158.64 -80 160 C-82.64 160 -85.28 160 -88 160 C-88 161.32 -88 162.64 -88 164 C-89.32 164 -90.64 164 -92 164 C-92 165.32 -92 166.64 -92 168 C-93.32 168 -94.64 168 -96 168 C-96 169.32 -96 170.64 -96 172 C-97.32 172 -98.64 172 -100 172 C-100 174.64 -100 177.28 -100 180 C-101.32 180 -102.64 180 -104 180 C-104 182.64 -104 185.28 -104 188 C-105.32 188 -106.64 188 -108 188 C-108 191.96 -108 195.92 -108 200 C-109.32 200 -110.64 200 -112 200 C-112 206.6 -112 213.2 -112 220 C-110.68 220 -109.36 220 -108 220 C-108 226.6 -108 233.2 -108 240 C-106.68 240 -105.36 240 -104 240 C-104 242.64 -104 245.28 -104 248 C-102.68 248 -101.36 248 -100 248 C-100 249.32 -100 250.64 -100 252 C-98.68 252 -97.36 252 -96 252 C-96 253.32 -96 254.64 -96 256 C-94.68 256 -93.36 256 -92 256 C-92 257.32 -92 258.64 -92 260 C-90.68 260 -89.36 260 -88 260 C-88 261.32 -88 262.64 -88 264 C-86.68 264 -85.36 264 -84 264 C-84 265.32 -84 266.64 -84 268 C-81.36 268 -78.72 268 -76 268 C-76 269.32 -76 270.64 -76 272 C-72.04 272 -68.08 272 -64 272 C-64 273.32 -64 274.64 -64 276 C-44.2 276 -24.4 276 -4 276 C-4 274.68 -4 273.36 -4 272 C-2.68 272 -1.36 272 0 272 C0 235.04 0 198.08 0 160 C-2.64 160 -5.28 160 -8 160 C-8 158.68 -8 157.36 -8 156 C-10.64 156 -13.28 156 -16 156 C-16 154.68 -16 153.36 -16 152 C-19.96 152 -23.92 152 -28 152 C-28 150.68 -28 149.36 -28 148 C-39.88 148 -51.76 148 -64 148 Z " transform="translate(860,88)" />
    <path d="M0 0 C21.12 0 42.24 0 64 0 C64 1.32 64 2.64 64 4 C62.68 4 61.36 4 60 4 C60 5.32 60 6.64 60 8 C58.68 8 57.36 8 56 8 C56 10.64 56 13.28 56 16 C54.68 16 53.36 16 52 16 C52 17.32 52 18.64 52 20 C50.68 20 49.36 20 48 20 C48 22.64 48 25.28 48 28 C46.68 28 45.36 28 44 28 C44 30.64 44 33.28 44 36 C42.68 36 41.36 36 40 36 C40 37.32 40 38.64 40 40 C38.68 40 37.36 40 36 40 C36 42.64 36 45.28 36 48 C34.68 48 33.36 48 32 48 C32 49.32 32 50.64 32 52 C30.68 52 29.36 52 28 52 C28 54.64 28 57.28 28 60 C26.68 60 25.36 60 24 60 C24 61.32 24 62.64 24 64 C22.68 64 21.36 64 20 64 C20 66.64 20 69.28 20 72 C18.68 72 17.36 72 16 72 C16 73.32 16 74.64 16 76 C14.68 76 13.36 76 12 76 C12 78.64 12 81.28 12 84 C10.68 84 9.36 84 8 84 C8 85.32 8 86.64 8 88 C6.68 88 5.36 88 4 88 C4 89.32 4 90.64 4 92 C2.68 92 1.36 92 0 92 C0 94.64 0 97.28 0 100 C-1.32 100 -2.64 100 -4 100 C-4 102.64 -4 105.28 -4 108 C-5.32 108 -6.64 108 -8 108 C-8 109.32 -8 110.64 -8 112 C-9.32 112 -10.64 112 -12 112 C-12 114.64 -12 117.28 -12 120 C-14.64 120 -17.28 120 -20 120 C-20 118.68 -20 117.36 -20 116 C-21.32 116 -22.64 116 -24 116 C-24 114.68 -24 113.36 -24 112 C-25.32 112 -26.64 112 -28 112 C-28 109.36 -28 106.72 -28 104 C-29.32 104 -30.64 104 -32 104 C-32 102.68 -32 101.36 -32 100 C-33.32 100 -34.64 100 -36 100 C-36 97.36 -36 94.72 -36 92 C-37.32 92 -38.64 92 -40 92 C-40 90.68 -40 89.36 -40 88 C-41.32 88 -42.64 88 -44 88 C-44 85.36 -44 82.72 -44 80 C-45.32 80 -46.64 80 -48 80 C-48 77.36 -48 74.72 -48 72 C-46.68 72 -45.36 72 -44 72 C-44 70.68 -44 69.36 -44 68 C-42.68 68 -41.36 68 -40 68 C-40 65.36 -40 62.72 -40 60 C-38.68 60 -37.36 60 -36 60 C-36 58.68 -36 57.36 -36 56 C-34.68 56 -33.36 56 -32 56 C-32 53.36 -32 50.72 -32 48 C-30.68 48 -29.36 48 -28 48 C-28 45.36 -28 42.72 -28 40 C-26.68 40 -25.36 40 -24 40 C-24 38.68 -24 37.36 -24 36 C-22.68 36 -21.36 36 -20 36 C-20 33.36 -20 30.72 -20 28 C-18.68 28 -17.36 28 -16 28 C-16 26.68 -16 25.36 -16 24 C-14.68 24 -13.36 24 -12 24 C-12 21.36 -12 18.72 -12 16 C-10.68 16 -9.36 16 -8 16 C-8 14.68 -8 13.36 -8 12 C-6.68 12 -5.36 12 -4 12 C-4 9.36 -4 6.72 -4 4 C-2.68 4 -1.36 4 0 4 C0 2.68 0 1.36 0 0 Z " transform="translate(372,152)" />
    <path d="M0 0 C17.16 0 34.32 0 52 0 C52 1.32 52 2.64 52 4 C55.96 4 59.92 4 64 4 C64 5.32 64 6.64 64 8 C67.96 8 71.92 8 76 8 C76 9.32 76 10.64 76 12 C77.32 12 78.64 12 80 12 C80 13.32 80 14.64 80 16 C82.64 16 85.28 16 88 16 C88 17.32 88 18.64 88 20 C90.64 20 93.28 20 96 20 C96 21.32 96 22.64 96 24 C97.32 24 98.64 24 100 24 C100 25.32 100 26.64 100 28 C101.32 28 102.64 28 104 28 C104 29.32 104 30.64 104 32 C105.32 32 106.64 32 108 32 C108 33.32 108 34.64 108 36 C109.32 36 110.64 36 112 36 C112 37.32 112 38.64 112 40 C113.32 40 114.64 40 116 40 C116 41.32 116 42.64 116 44 C117.32 44 118.64 44 120 44 C120 45.32 120 46.64 120 48 C121.32 48 122.64 48 124 48 C124 50.64 124 53.28 124 56 C125.32 56 126.64 56 128 56 C128 58.64 128 61.28 128 64 C129.32 64 130.64 64 132 64 C132 67.96 132 71.92 132 76 C133.32 76 134.64 76 136 76 C136 81.28 136 86.56 136 92 C137.32 92 138.64 92 140 92 C140 105.2 140 118.4 140 132 C138.68 132 137.36 132 136 132 C136 137.28 136 142.56 136 148 C134.68 148 133.36 148 132 148 C132 150.64 132 153.28 132 156 C130.68 156 129.36 156 128 156 C128 158.64 128 161.28 128 164 C126.68 164 125.36 164 124 164 C124 166.64 124 169.28 124 172 C122.68 172 121.36 172 120 172 C120 174.64 120 177.28 120 180 C118.68 180 117.36 180 116 180 C116 181.32 116 182.64 116 184 C114.68 184 113.36 184 112 184 C112 185.32 112 186.64 112 188 C110.68 188 109.36 188 108 188 C108 189.32 108 190.64 108 192 C106.68 192 105.36 192 104 192 C104 193.32 104 194.64 104 196 C102.68 196 101.36 196 100 196 C100 197.32 100 198.64 100 200 C98.68 200 97.36 200 96 200 C96 201.32 96 202.64 96 204 C94.68 204 93.36 204 92 204 C92 205.32 92 206.64 92 208 C89.36 208 86.72 208 84 208 C84 209.32 84 210.64 84 212 C81.36 212 78.72 212 76 212 C76 213.32 76 214.64 76 216 C73.36 216 70.72 216 68 216 C68 217.32 68 218.64 68 220 C64.04 220 60.08 220 56 220 C56 221.32 56 222.64 56 224 C34.88 224 13.76 224 -8 224 C-8 222.68 -8 221.36 -8 220 C-11.96 220 -15.92 220 -20 220 C-20 218.68 -20 217.36 -20 216 C-22.64 216 -25.28 216 -28 216 C-28 214.68 -28 213.36 -28 212 C-30.64 212 -33.28 212 -36 212 C-36 210.68 -36 209.36 -36 208 C-37.32 208 -38.64 208 -40 208 C-40 206.68 -40 205.36 -40 204 C-42.64 204 -45.28 204 -48 204 C-48 202.68 -48 201.36 -48 200 C-49.32 200 -50.64 200 -52 200 C-52 198.68 -52 197.36 -52 196 C-53.32 196 -54.64 196 -56 196 C-56 194.68 -56 193.36 -56 192 C-57.32 192 -58.64 192 -60 192 C-60 190.68 -60 189.36 -60 188 C-61.32 188 -62.64 188 -64 188 C-64 186.68 -64 185.36 -64 184 C-65.32 184 -66.64 184 -68 184 C-68 182.68 -68 181.36 -68 180 C-69.32 180 -70.64 180 -72 180 C-72 177.36 -72 174.72 -72 172 C-73.32 172 -74.64 172 -76 172 C-76 169.36 -76 166.72 -76 164 C-77.32 164 -78.64 164 -80 164 C-80 161.36 -80 158.72 -80 156 C-81.32 156 -82.64 156 -84 156 C-84 152.04 -84 148.08 -84 144 C-85.32 144 -86.64 144 -88 144 C-88 124.2 -88 104.4 -88 84 C-86.68 84 -85.36 84 -84 84 C-84 80.04 -84 76.08 -84 72 C-82.68 72 -81.36 72 -80 72 C-80 69.36 -80 66.72 -80 64 C-78.68 64 -77.36 64 -76 64 C-76 61.36 -76 58.72 -76 56 C-74.68 56 -73.36 56 -72 56 C-72 53.36 -72 50.72 -72 48 C-70.68 48 -69.36 48 -68 48 C-68 46.68 -68 45.36 -68 44 C-66.68 44 -65.36 44 -64 44 C-64 42.68 -64 41.36 -64 40 C-62.68 40 -61.36 40 -60 40 C-60 37.36 -60 34.72 -60 32 C-58.68 32 -57.36 32 -56 32 C-56 30.68 -56 29.36 -56 28 C-53.36 28 -50.72 28 -48 28 C-48 26.68 -48 25.36 -48 24 C-46.68 24 -45.36 24 -44 24 C-44 22.68 -44 21.36 -44 20 C-42.68 20 -41.36 20 -40 20 C-40 18.68 -40 17.36 -40 16 C-37.36 16 -34.72 16 -32 16 C-32 14.68 -32 13.36 -32 12 C-29.36 12 -26.72 12 -24 12 C-24 10.68 -24 9.36 -24 8 C-21.36 8 -18.72 8 -16 8 C-16 6.68 -16 5.36 -16 4 C-10.72 4 -5.44 4 0 4 C0 2.68 0 1.36 0 0 Z M12 48 C12 49.32 12 50.64 12 52 C8.04 52 4.08 52 0 52 C0 53.32 0 54.64 0 56 C-2.64 56 -5.28 56 -8 56 C-8 57.32 -8 58.64 -8 60 C-9.32 60 -10.64 60 -12 60 C-12 61.32 -12 62.64 -12 64 C-13.32 64 -14.64 64 -16 64 C-16 65.32 -16 66.64 -16 68 C-17.32 68 -18.64 68 -20 68 C-20 69.32 -20 70.64 -20 72 C-21.32 72 -22.64 72 -24 72 C-24 74.64 -24 77.28 -24 80 C-25.32 80 -26.64 80 -28 80 C-28 82.64 -28 85.28 -28 88 C-29.32 88 -30.64 88 -32 88 C-32 91.96 -32 95.92 -32 100 C-33.32 100 -34.64 100 -36 100 C-36 107.92 -36 115.84 -36 124 C-34.68 124 -33.36 124 -32 124 C-32 129.28 -32 134.56 -32 140 C-30.68 140 -29.36 140 -28 140 C-28 142.64 -28 145.28 -28 148 C-26.68 148 -25.36 148 -24 148 C-24 149.32 -24 150.64 -24 152 C-22.68 152 -21.36 152 -20 152 C-20 154.64 -20 157.28 -20 160 C-17.36 160 -14.72 160 -12 160 C-12 161.32 -12 162.64 -12 164 C-10.68 164 -9.36 164 -8 164 C-8 165.32 -8 166.64 -8 168 C-6.68 168 -5.36 168 -4 168 C-4 169.32 -4 170.64 -4 172 C-0.04 172 3.92 172 8 172 C8 173.32 8 174.64 8 176 C18.56 176 29.12 176 40 176 C40 174.68 40 173.36 40 172 C42.64 172 45.28 172 48 172 C48 170.68 48 169.36 48 168 C50.64 168 53.28 168 56 168 C56 166.68 56 165.36 56 164 C58.64 164 61.28 164 64 164 C64 162.68 64 161.36 64 160 C65.32 160 66.64 160 68 160 C68 157.36 68 154.72 68 152 C69.32 152 70.64 152 72 152 C72 150.68 72 149.36 72 148 C73.32 148 74.64 148 76 148 C76 145.36 76 142.72 76 140 C77.32 140 78.64 140 80 140 C80 136.04 80 132.08 80 128 C81.32 128 82.64 128 84 128 C84 117.44 84 106.88 84 96 C82.68 96 81.36 96 80 96 C80 92.04 80 88.08 80 84 C78.68 84 77.36 84 76 84 C76 81.36 76 78.72 76 76 C74.68 76 73.36 76 72 76 C72 74.68 72 73.36 72 72 C70.68 72 69.36 72 68 72 C68 69.36 68 66.72 68 64 C65.36 64 62.72 64 60 64 C60 62.68 60 61.36 60 60 C58.68 60 57.36 60 56 60 C56 58.68 56 57.36 56 56 C53.36 56 50.72 56 48 56 C48 54.68 48 53.36 48 52 C44.04 52 40.08 52 36 52 C36 50.68 36 49.36 36 48 C28.08 48 20.16 48 12 48 Z " transform="translate(536,188)" />
    <path d="M0 0 C21.12 0 42.24 0 64 0 C64 1.32 64 2.64 64 4 C69.28 4 74.56 4 80 4 C80 5.32 80 6.64 80 8 C83.96 8 87.92 8 92 8 C92 9.32 92 10.64 92 12 C90.68 12 89.36 12 88 12 C88 15.96 88 19.92 88 24 C86.68 24 85.36 24 84 24 C84 29.28 84 34.56 84 40 C82.68 40 81.36 40 80 40 C80 43.96 80 47.92 80 52 C77.36 52 74.72 52 72 52 C72 50.68 72 49.36 72 48 C50.88 48 29.76 48 8 48 C8 49.32 8 50.64 8 52 C5.36 52 2.72 52 0 52 C0 53.32 0 54.64 0 56 C-1.32 56 -2.64 56 -4 56 C-4 61.28 -4 66.56 -4 72 C-2.68 72 -1.36 72 0 72 C0 73.32 0 74.64 0 76 C1.32 76 2.64 76 4 76 C4 77.32 4 78.64 4 80 C7.96 80 11.92 80 16 80 C16 81.32 16 82.64 16 84 C19.96 84 23.92 84 28 84 C28 85.32 28 86.64 28 88 C31.96 88 35.92 88 40 88 C40 89.32 40 90.64 40 92 C42.64 92 45.28 92 48 92 C48 93.32 48 94.64 48 96 C51.96 96 55.92 96 60 96 C60 97.32 60 98.64 60 100 C62.64 100 65.28 100 68 100 C68 101.32 68 102.64 68 104 C70.64 104 73.28 104 76 104 C76 105.32 76 106.64 76 108 C77.32 108 78.64 108 80 108 C80 109.32 80 110.64 80 112 C81.32 112 82.64 112 84 112 C84 113.32 84 114.64 84 116 C85.32 116 86.64 116 88 116 C88 117.32 88 118.64 88 120 C89.32 120 90.64 120 92 120 C92 122.64 92 125.28 92 128 C93.32 128 94.64 128 96 128 C96 130.64 96 133.28 96 136 C97.32 136 98.64 136 100 136 C100 149.2 100 162.4 100 176 C98.68 176 97.36 176 96 176 C96 178.64 96 181.28 96 184 C94.68 184 93.36 184 92 184 C92 186.64 92 189.28 92 192 C90.68 192 89.36 192 88 192 C88 193.32 88 194.64 88 196 C86.68 196 85.36 196 84 196 C84 197.32 84 198.64 84 200 C82.68 200 81.36 200 80 200 C80 201.32 80 202.64 80 204 C78.68 204 77.36 204 76 204 C76 205.32 76 206.64 76 208 C74.68 208 73.36 208 72 208 C72 209.32 72 210.64 72 212 C69.36 212 66.72 212 64 212 C64 213.32 64 214.64 64 216 C60.04 216 56.08 216 52 216 C52 217.32 52 218.64 52 220 C48.04 220 44.08 220 40 220 C40 221.32 40 222.64 40 224 C14.92 224 -10.16 224 -36 224 C-36 222.68 -36 221.36 -36 220 C-41.28 220 -46.56 220 -52 220 C-52 218.68 -52 217.36 -52 216 C-54.64 216 -57.28 216 -60 216 C-60 212.04 -60 208.08 -60 204 C-58.68 204 -57.36 204 -56 204 C-56 197.4 -56 190.8 -56 184 C-54.68 184 -53.36 184 -52 184 C-52 180.04 -52 176.08 -52 172 C-45.4 172 -38.8 172 -32 172 C-32 173.32 -32 174.64 -32 176 C-10.88 176 10.24 176 32 176 C32 174.68 32 173.36 32 172 C34.64 172 37.28 172 40 172 C40 170.68 40 169.36 40 168 C41.32 168 42.64 168 44 168 C44 162.72 44 157.44 44 152 C42.68 152 41.36 152 40 152 C40 150.68 40 149.36 40 148 C38.68 148 37.36 148 36 148 C36 146.68 36 145.36 36 144 C34.68 144 33.36 144 32 144 C32 142.68 32 141.36 32 140 C28.04 140 24.08 140 20 140 C20 138.68 20 137.36 20 136 C16.04 136 12.08 136 8 136 C8 134.68 8 133.36 8 132 C4.04 132 0.08 132 -4 132 C-4 130.68 -4 129.36 -4 128 C-7.96 128 -11.92 128 -16 128 C-16 126.68 -16 125.36 -16 124 C-18.64 124 -21.28 124 -24 124 C-24 122.68 -24 121.36 -24 120 C-26.64 120 -29.28 120 -32 120 C-32 118.68 -32 117.36 -32 116 C-33.32 116 -34.64 116 -36 116 C-36 114.68 -36 113.36 -36 112 C-37.32 112 -38.64 112 -40 112 C-40 110.68 -40 109.36 -40 108 C-41.32 108 -42.64 108 -44 108 C-44 106.68 -44 105.36 -44 104 C-45.32 104 -46.64 104 -48 104 C-48 102.68 -48 101.36 -48 100 C-49.32 100 -50.64 100 -52 100 C-52 97.36 -52 94.72 -52 92 C-53.32 92 -54.64 92 -56 92 C-56 88.04 -56 84.08 -56 80 C-57.32 80 -58.64 80 -60 80 C-60 70.76 -60 61.52 -60 52 C-58.68 52 -57.36 52 -56 52 C-56 48.04 -56 44.08 -56 40 C-54.68 40 -53.36 40 -52 40 C-52 37.36 -52 34.72 -52 32 C-50.68 32 -49.36 32 -48 32 C-48 30.68 -48 29.36 -48 28 C-46.68 28 -45.36 28 -44 28 C-44 26.68 -44 25.36 -44 24 C-42.68 24 -41.36 24 -40 24 C-40 22.68 -40 21.36 -40 20 C-38.68 20 -37.36 20 -36 20 C-36 18.68 -36 17.36 -36 16 C-34.68 16 -33.36 16 -32 16 C-32 14.68 -32 13.36 -32 12 C-29.36 12 -26.72 12 -24 12 C-24 10.68 -24 9.36 -24 8 C-21.36 8 -18.72 8 -16 8 C-16 6.68 -16 5.36 -16 4 C-10.72 4 -5.44 4 0 4 C0 2.68 0 1.36 0 0 Z " transform="translate(1220,188)" />
    <path d="M0 0 C17.16 0 34.32 0 52 0 C52 1.32 52 2.64 52 4 C53.32 4 54.64 4 56 4 C56 51.52 56 99.04 56 148 C57.32 148 58.64 148 60 148 C60 150.64 60 153.28 60 156 C61.32 156 62.64 156 64 156 C64 157.32 64 158.64 64 160 C65.32 160 66.64 160 68 160 C68 161.32 68 162.64 68 164 C69.32 164 70.64 164 72 164 C72 165.32 72 166.64 72 168 C74.64 168 77.28 168 80 168 C80 169.32 80 170.64 80 172 C97.16 172 114.32 172 132 172 C132 170.68 132 169.36 132 168 C134.64 168 137.28 168 140 168 C140 117.84 140 67.68 140 16 C141.32 16 142.64 16 144 16 C144 10.72 144 5.44 144 0 C161.16 0 178.32 0 196 0 C196 69.96 196 139.92 196 212 C192.04 212 188.08 212 184 212 C184 213.32 184 214.64 184 216 C173.44 216 162.88 216 152 216 C152 217.32 152 218.64 152 220 C121.64 220 91.28 220 60 220 C60 218.68 60 217.36 60 216 C56.04 216 52.08 216 48 216 C48 214.68 48 213.36 48 212 C45.36 212 42.72 212 40 212 C40 210.68 40 209.36 40 208 C37.36 208 34.72 208 32 208 C32 206.68 32 205.36 32 204 C30.68 204 29.36 204 28 204 C28 202.68 28 201.36 28 200 C26.68 200 25.36 200 24 200 C24 198.68 24 197.36 24 196 C22.68 196 21.36 196 20 196 C20 194.68 20 193.36 20 192 C18.68 192 17.36 192 16 192 C16 190.68 16 189.36 16 188 C14.68 188 13.36 188 12 188 C12 185.36 12 182.72 12 180 C10.68 180 9.36 180 8 180 C8 177.36 8 174.72 8 172 C6.68 172 5.36 172 4 172 C4 166.72 4 161.44 4 156 C2.68 156 1.36 156 0 156 C0 104.52 0 53.04 0 0 Z " transform="translate(940,192)" />
    <path d="M0 0 C1.32 0 2.64 0 4 0 C4 1.32 4 2.64 4 4 C5.32 4 6.64 4 8 4 C8 6.64 8 9.28 8 12 C9.32 12 10.64 12 12 12 C12 13.32 12 14.64 12 16 C13.32 16 14.64 16 16 16 C16 18.64 16 21.28 16 24 C17.32 24 18.64 24 20 24 C20 26.64 20 29.28 20 32 C21.32 32 22.64 32 24 32 C24 33.32 24 34.64 24 36 C25.32 36 26.64 36 28 36 C28 38.64 28 41.28 28 44 C29.32 44 30.64 44 32 44 C32 46.64 32 49.28 32 52 C30.68 52 29.36 52 28 52 C28 53.32 28 54.64 28 56 C26.68 56 25.36 56 24 56 C24 58.64 24 61.28 24 64 C22.68 64 21.36 64 20 64 C20 65.32 20 66.64 20 68 C18.68 68 17.36 68 16 68 C16 70.64 16 73.28 16 76 C14.68 76 13.36 76 12 76 C12 77.32 12 78.64 12 80 C10.68 80 9.36 80 8 80 C8 82.64 8 85.28 8 88 C6.68 88 5.36 88 4 88 C4 89.32 4 90.64 4 92 C2.68 92 1.36 92 0 92 C0 94.64 0 97.28 0 100 C-1.32 100 -2.64 100 -4 100 C-4 101.32 -4 102.64 -4 104 C-5.32 104 -6.64 104 -8 104 C-8 106.64 -8 109.28 -8 112 C-9.32 112 -10.64 112 -12 112 C-12 113.32 -12 114.64 -12 116 C-13.32 116 -14.64 116 -16 116 C-16 118.64 -16 121.28 -16 124 C-31.84 124 -47.68 124 -64 124 C-64 122.68 -64 121.36 -64 120 C-67.96 120 -71.92 120 -76 120 C-76 118.68 -76 117.36 -76 116 C-74.68 116 -73.36 116 -72 116 C-72 114.68 -72 113.36 -72 112 C-70.68 112 -69.36 112 -68 112 C-68 109.36 -68 106.72 -68 104 C-66.68 104 -65.36 104 -64 104 C-64 101.36 -64 98.72 -64 96 C-62.68 96 -61.36 96 -60 96 C-60 94.68 -60 93.36 -60 92 C-58.68 92 -57.36 92 -56 92 C-56 89.36 -56 86.72 -56 84 C-54.68 84 -53.36 84 -52 84 C-52 81.36 -52 78.72 -52 76 C-50.68 76 -49.36 76 -48 76 C-48 74.68 -48 73.36 -48 72 C-46.68 72 -45.36 72 -44 72 C-44 70.68 -44 69.36 -44 68 C-42.68 68 -41.36 68 -40 68 C-40 65.36 -40 62.72 -40 60 C-38.68 60 -37.36 60 -36 60 C-36 58.68 -36 57.36 -36 56 C-34.68 56 -33.36 56 -32 56 C-32 53.36 -32 50.72 -32 48 C-30.68 48 -29.36 48 -28 48 C-28 45.36 -28 42.72 -28 40 C-26.68 40 -25.36 40 -24 40 C-24 38.68 -24 37.36 -24 36 C-22.68 36 -21.36 36 -20 36 C-20 33.36 -20 30.72 -20 28 C-18.68 28 -17.36 28 -16 28 C-16 26.68 -16 25.36 -16 24 C-14.68 24 -13.36 24 -12 24 C-12 21.36 -12 18.72 -12 16 C-10.68 16 -9.36 16 -8 16 C-8 14.68 -8 13.36 -8 12 C-6.68 12 -5.36 12 -4 12 C-4 9.36 -4 6.72 -4 4 C-2.68 4 -1.36 4 0 4 C0 2.68 0 1.36 0 0 Z " transform="translate(272,288)" />
  </g>
  <g id="accent" fill="#8018fc" transform="scale(0.25)">
    <path d="M0 0 C3.96 0 7.92 0 12 0 C12 113.52 12 227.04 12 344 C9.36 344 6.72 344 4 344 C4 345.32 4 346.64 4 348 C2.68 348 1.36 348 0 348 C0 346.68 0 345.36 0 344 C-1.32 344 -2.64 344 -4 344 C-4 312.32 -4 280.64 -4 248 C-2.68 248 -1.36 248 0 248 C0 240.08 0 232.16 0 224 C-1.32 224 -2.64 224 -4 224 C-4 210.8 -4 197.6 -4 184 C-2.68 184 -1.36 184 0 184 C0 168.16 0 152.32 0 136 C-1.32 136 -2.64 136 -4 136 C-4 92.44 -4 48.88 -4 4 C-2.68 4 -1.36 4 0 4 C0 2.68 0 1.36 0 0 Z " transform="translate(1416,100)" />
    <path d="M0 0 C7.92 0 15.84 0 24 0 C24 47.52 24 95.04 24 144 C25.32 144 26.64 144 28 144 C28 145.32 28 146.64 28 148 C30.64 148 33.28 148 36 148 C36 153.28 36 158.56 36 164 C34.68 164 33.36 164 32 164 C32 165.32 32 166.64 32 168 C26.72 168 21.44 168 16 168 C16 166.68 16 165.36 16 164 C13.36 164 10.72 164 8 164 C8 162.68 8 161.36 8 160 C6.68 160 5.36 160 4 160 C4 157.36 4 154.72 4 152 C2.68 152 1.36 152 0 152 C0 101.84 0 51.68 0 0 Z " transform="translate(2624,188)" />
    <path d="M0 0 C2.64 0 5.28 0 8 0 C8 1.32 8 2.64 8 4 C10.64 4 13.28 4 16 4 C16 6.64 16 9.28 16 12 C17.32 12 18.64 12 20 12 C20 14.64 20 17.28 20 20 C18.68 20 17.36 20 16 20 C16 22.64 16 25.28 16 28 C13.36 28 10.72 28 8 28 C8 29.32 8 30.64 8 32 C5.36 32 2.72 32 0 32 C0 30.68 0 29.36 0 28 C-2.64 28 -5.28 28 -8 28 C-8 20.08 -8 12.16 -8 4 C-5.36 4 -2.72 4 0 4 C0 2.68 0 1.36 0 0 Z " transform="translate(1896,192)" />
    <path d="M0 0 C3.96 0 7.92 0 12 0 C12 1.32 12 2.64 12 4 C13.32 4 14.64 4 16 4 C16 5.32 16 6.64 16 8 C17.32 8 18.64 8 20 8 C20 11.96 20 15.92 20 20 C18.68 20 17.36 20 16 20 C16 22.64 16 25.28 16 28 C13.36 28 10.72 28 8 28 C8 29.32 8 30.64 8 32 C5.36 32 2.72 32 0 32 C0 30.68 0 29.36 0 28 C-1.32 28 -2.64 28 -4 28 C-4 26.68 -4 25.36 -4 24 C-5.32 24 -6.64 24 -8 24 C-8 17.4 -8 10.8 -8 4 C-5.36 4 -2.72 4 0 4 C0 2.68 0 1.36 0 0 Z " transform="translate(2220,192)" />
    <path d="M0 0 C1.32 0 2.64 0 4 0 C4 6.6 4 13.2 4 20 C5.32 20 6.64 20 8 20 C8 60.92 8 101.84 8 144 C6.68 144 5.36 144 4 144 C4 145.32 4 146.64 4 148 C5.32 148 6.64 148 8 148 C8 150.64 8 153.28 8 156 C0.08 156 -7.84 156 -16 156 C-16 105.84 -16 55.68 -16 4 C-10.72 4 -5.44 4 0 4 C0 2.68 0 1.36 0 0 Z " transform="translate(1556,196)" />
    <path d="M0 0 C6.6 0 13.2 0 20 0 C20 10.56 20 21.12 20 32 C29.24 32 38.48 32 48 32 C48 38.6 48 45.2 48 52 C38.76 52 29.52 52 20 52 C20 74.44 20 96.88 20 120 C21.32 120 22.64 120 24 120 C24 121.32 24 122.64 24 124 C31.92 124 39.84 124 48 124 C48 126.64 48 129.28 48 132 C49.32 132 50.64 132 52 132 C52 134.64 52 137.28 52 140 C49.36 140 46.72 140 44 140 C44 141.32 44 142.64 44 144 C34.76 144 25.52 144 16 144 C16 142.68 16 141.36 16 140 C13.36 140 10.72 140 8 140 C8 138.68 8 137.36 8 136 C6.68 136 5.36 136 4 136 C4 133.36 4 130.72 4 128 C2.68 128 1.36 128 0 128 C0 104.24 0 80.48 0 56 C-1.32 56 -2.64 56 -4 56 C-4 54.68 -4 53.36 -4 52 C-7.96 52 -11.92 52 -16 52 C-16 45.4 -16 38.8 -16 32 C-12.04 32 -8.08 32 -4 32 C-4 30.68 -4 29.36 -4 28 C-2.68 28 -1.36 28 0 28 C0 18.76 0 9.52 0 0 Z " transform="translate(1820,212)" />
    <path d="M0 0 C7.92 0 15.84 0 24 0 C24 10.56 24 21.12 24 32 C33.24 32 42.48 32 52 32 C52 38.6 52 45.2 52 52 C42.76 52 33.52 52 24 52 C24 74.44 24 96.88 24 120 C25.32 120 26.64 120 28 120 C28 121.32 28 122.64 28 124 C35.92 124 43.84 124 52 124 C52 126.64 52 129.28 52 132 C53.32 132 54.64 132 56 132 C56 134.64 56 137.28 56 140 C53.36 140 50.72 140 48 140 C48 141.32 48 142.64 48 144 C38.76 144 29.52 144 20 144 C20 142.68 20 141.36 20 140 C17.36 140 14.72 140 12 140 C12 138.68 12 137.36 12 136 C10.68 136 9.36 136 8 136 C8 134.68 8 133.36 8 132 C6.68 132 5.36 132 4 132 C4 128.04 4 124.08 4 120 C2.68 120 1.36 120 0 120 C0 97.56 0 75.12 0 52 C-3.96 52 -7.92 52 -12 52 C-12 50.68 -12 49.36 -12 48 C-13.32 48 -14.64 48 -16 48 C-16 44.04 -16 40.08 -16 36 C-14.68 36 -13.36 36 -12 36 C-12 34.68 -12 33.36 -12 32 C-8.04 32 -4.08 32 0 32 C0 21.44 0 10.88 0 0 Z " transform="translate(1944,212)" />
    <path d="M0 0 C6.6 0 13.2 0 20 0 C20 10.56 20 21.12 20 32 C29.24 32 38.48 32 48 32 C48 38.6 48 45.2 48 52 C38.76 52 29.52 52 20 52 C20 73.12 20 94.24 20 116 C21.32 116 22.64 116 24 116 C24 117.32 24 118.64 24 120 C25.32 120 26.64 120 28 120 C28 121.32 28 122.64 28 124 C34.6 124 41.2 124 48 124 C48 126.64 48 129.28 48 132 C49.32 132 50.64 132 52 132 C52 134.64 52 137.28 52 140 C50.68 140 49.36 140 48 140 C48 141.32 48 142.64 48 144 C37.44 144 26.88 144 16 144 C16 142.68 16 141.36 16 140 C13.36 140 10.72 140 8 140 C8 138.68 8 137.36 8 136 C6.68 136 5.36 136 4 136 C4 133.36 4 130.72 4 128 C2.68 128 1.36 128 0 128 C0 106.88 0 85.76 0 64 C-1.32 64 -2.64 64 -4 64 C-4 60.04 -4 56.08 -4 52 C-7.96 52 -11.92 52 -16 52 C-16 45.4 -16 38.8 -16 32 C-12.04 32 -8.08 32 -4 32 C-4 30.68 -4 29.36 -4 28 C-2.68 28 -1.36 28 0 28 C0 18.76 0 9.52 0 0 Z " transform="translate(2144,212)" />
    <path d="M0 0 C9.24 0 18.48 0 28 0 C28 1.32 28 2.64 28 4 C30.64 4 33.28 4 36 4 C36 5.32 36 6.64 36 8 C37.32 8 38.64 8 40 8 C40 9.32 40 10.64 40 12 C41.32 12 42.64 12 44 12 C44 13.32 44 14.64 44 16 C45.32 16 46.64 16 48 16 C48 18.64 48 21.28 48 24 C49.32 24 50.64 24 52 24 C52 29.28 52 34.56 52 40 C53.32 40 54.64 40 56 40 C56 63.76 56 87.52 56 112 C48.08 112 40.16 112 32 112 C32 85.6 32 59.2 32 32 C30.68 32 29.36 32 28 32 C28 30.68 28 29.36 28 28 C26.68 28 25.36 28 24 28 C24 26.68 24 25.36 24 24 C21.36 24 18.72 24 16 24 C16 22.68 16 21.36 16 20 C10.72 20 5.44 20 0 20 C0 21.32 0 22.64 0 24 C-2.64 24 -5.28 24 -8 24 C-8 25.32 -8 26.64 -8 28 C-10.64 28 -13.28 28 -16 28 C-16 30.64 -16 33.28 -16 36 C-17.32 36 -18.64 36 -20 36 C-20 61.08 -20 86.16 -20 112 C-27.92 112 -35.84 112 -44 112 C-44 76.36 -44 40.72 -44 4 C-36.08 4 -28.16 4 -20 4 C-20 6.64 -20 9.28 -20 12 C-17.36 12 -14.72 12 -12 12 C-12 10.68 -12 9.36 -12 8 C-10.68 8 -9.36 8 -8 8 C-8 6.68 -8 5.36 -8 4 C-5.36 4 -2.72 4 0 4 C0 2.68 0 1.36 0 0 Z " transform="translate(1636,240)" />
    <path d="M0 0 C9.24 0 18.48 0 28 0 C28 1.32 28 2.64 28 4 C31.96 4 35.92 4 40 4 C40 5.32 40 6.64 40 8 C42.64 8 45.28 8 48 8 C48 11.96 48 15.92 48 20 C46.68 20 45.36 20 44 20 C44 22.64 44 25.28 44 28 C41.36 28 38.72 28 36 28 C36 26.68 36 25.36 36 24 C33.36 24 30.72 24 28 24 C28 22.68 28 21.36 28 20 C18.76 20 9.52 20 0 20 C0 21.32 0 22.64 0 24 C-1.32 24 -2.64 24 -4 24 C-4 29.28 -4 34.56 -4 40 C-2.68 40 -1.36 40 0 40 C0 41.32 0 42.64 0 44 C3.96 44 7.92 44 12 44 C12 45.32 12 46.64 12 48 C15.96 48 19.92 48 24 48 C24 49.32 24 50.64 24 52 C27.96 52 31.92 52 36 52 C36 53.32 36 54.64 36 56 C38.64 56 41.28 56 44 56 C44 57.32 44 58.64 44 60 C45.32 60 46.64 60 48 60 C48 61.32 48 62.64 48 64 C49.32 64 50.64 64 52 64 C52 74.56 52 85.12 52 96 C50.68 96 49.36 96 48 96 C48 98.64 48 101.28 48 104 C46.68 104 45.36 104 44 104 C44 105.32 44 106.64 44 108 C41.36 108 38.72 108 36 108 C36 109.32 36 110.64 36 112 C33.36 112 30.72 112 28 112 C28 113.32 28 114.64 28 116 C16.12 116 4.24 116 -8 116 C-8 114.68 -8 113.36 -8 112 C-11.96 112 -15.92 112 -20 112 C-20 110.68 -20 109.36 -20 108 C-22.64 108 -25.28 108 -28 108 C-28 106.68 -28 105.36 -28 104 C-29.32 104 -30.64 104 -32 104 C-32 102.68 -32 101.36 -32 100 C-30.68 100 -29.36 100 -28 100 C-28 97.36 -28 94.72 -28 92 C-26.68 92 -25.36 92 -24 92 C-24 90.68 -24 89.36 -24 88 C-21.36 88 -18.72 88 -16 88 C-16 89.32 -16 90.64 -16 92 C-13.36 92 -10.72 92 -8 92 C-8 93.32 -8 94.64 -8 96 C2.56 96 13.12 96 24 96 C24 94.68 24 93.36 24 92 C25.32 92 26.64 92 28 92 C28 90.68 28 89.36 28 88 C29.32 88 30.64 88 32 88 C32 85.36 32 82.72 32 80 C30.68 80 29.36 80 28 80 C28 77.36 28 74.72 28 72 C25.36 72 22.72 72 20 72 C20 70.68 20 69.36 20 68 C14.72 68 9.44 68 4 68 C4 66.68 4 65.36 4 64 C0.04 64 -3.92 64 -8 64 C-8 62.68 -8 61.36 -8 60 C-10.64 60 -13.28 60 -16 60 C-16 58.68 -16 57.36 -16 56 C-17.32 56 -18.64 56 -20 56 C-20 54.68 -20 53.36 -20 52 C-21.32 52 -22.64 52 -24 52 C-24 49.36 -24 46.72 -24 44 C-25.32 44 -26.64 44 -28 44 C-28 37.4 -28 30.8 -28 24 C-26.68 24 -25.36 24 -24 24 C-24 21.36 -24 18.72 -24 16 C-22.68 16 -21.36 16 -20 16 C-20 14.68 -20 13.36 -20 12 C-18.68 12 -17.36 12 -16 12 C-16 10.68 -16 9.36 -16 8 C-14.68 8 -13.36 8 -12 8 C-12 6.68 -12 5.36 -12 4 C-8.04 4 -4.08 4 0 4 C0 2.68 0 1.36 0 0 Z " transform="translate(1740,240)" />
    <path d="M0 0 C10.56 0 21.12 0 32 0 C32 1.32 32 2.64 32 4 C35.96 4 39.92 4 44 4 C44 5.32 44 6.64 44 8 C45.32 8 46.64 8 48 8 C48 9.32 48 10.64 48 12 C50.64 12 53.28 12 56 12 C56 14.64 56 17.28 56 20 C57.32 20 58.64 20 60 20 C60 21.32 60 22.64 60 24 C61.32 24 62.64 24 64 24 C64 26.64 64 29.28 64 32 C65.32 32 66.64 32 68 32 C68 34.64 68 37.28 68 40 C69.32 40 70.64 40 72 40 C72 51.88 72 63.76 72 76 C70.68 76 69.36 76 68 76 C68 79.96 68 83.92 68 88 C66.68 88 65.36 88 64 88 C64 90.64 64 93.28 64 96 C62.68 96 61.36 96 60 96 C60 97.32 60 98.64 60 100 C58.68 100 57.36 100 56 100 C56 101.32 56 102.64 56 104 C54.68 104 53.36 104 52 104 C52 105.32 52 106.64 52 108 C49.36 108 46.72 108 44 108 C44 109.32 44 110.64 44 112 C40.04 112 36.08 112 32 112 C32 113.32 32 114.64 32 116 C21.44 116 10.88 116 0 116 C0 114.68 0 113.36 0 112 C-3.96 112 -7.92 112 -12 112 C-12 110.68 -12 109.36 -12 108 C-13.32 108 -14.64 108 -16 108 C-16 106.68 -16 105.36 -16 104 C-17.32 104 -18.64 104 -20 104 C-20 102.68 -20 101.36 -20 100 C-21.32 100 -22.64 100 -24 100 C-24 98.68 -24 97.36 -24 96 C-25.32 96 -26.64 96 -28 96 C-28 94.68 -28 93.36 -28 92 C-29.32 92 -30.64 92 -32 92 C-32 90.68 -32 89.36 -32 88 C-33.32 88 -34.64 88 -36 88 C-36 84.04 -36 80.08 -36 76 C-37.32 76 -38.64 76 -40 76 C-40 65.44 -40 54.88 -40 44 C-38.68 44 -37.36 44 -36 44 C-36 40.04 -36 36.08 -36 32 C-34.68 32 -33.36 32 -32 32 C-32 29.36 -32 26.72 -32 24 C-30.68 24 -29.36 24 -28 24 C-28 22.68 -28 21.36 -28 20 C-26.68 20 -25.36 20 -24 20 C-24 18.68 -24 17.36 -24 16 C-22.68 16 -21.36 16 -20 16 C-20 14.68 -20 13.36 -20 12 C-18.68 12 -17.36 12 -16 12 C-16 10.68 -16 9.36 -16 8 C-13.36 8 -10.72 8 -8 8 C-8 6.68 -8 5.36 -8 4 C-5.36 4 -2.72 4 0 4 C0 2.68 0 1.36 0 0 Z M8 20 C8 21.32 8 22.64 8 24 C5.36 24 2.72 24 0 24 C0 25.32 0 26.64 0 28 C-1.32 28 -2.64 28 -4 28 C-4 29.32 -4 30.64 -4 32 C-5.32 32 -6.64 32 -8 32 C-8 33.32 -8 34.64 -8 36 C-9.32 36 -10.64 36 -12 36 C-12 38.64 -12 41.28 -12 44 C-13.32 44 -14.64 44 -16 44 C-16 53.24 -16 62.48 -16 72 C-14.68 72 -13.36 72 -12 72 C-12 74.64 -12 77.28 -12 80 C-10.68 80 -9.36 80 -8 80 C-8 82.64 -8 85.28 -8 88 C-6.68 88 -5.36 88 -4 88 C-4 89.32 -4 90.64 -4 92 C-1.36 92 1.28 92 4 92 C4 93.32 4 94.64 4 96 C11.92 96 19.84 96 28 96 C28 94.68 28 93.36 28 92 C30.64 92 33.28 92 36 92 C36 90.68 36 89.36 36 88 C37.32 88 38.64 88 40 88 C40 86.68 40 85.36 40 84 C41.32 84 42.64 84 44 84 C44 81.36 44 78.72 44 76 C45.32 76 46.64 76 48 76 C48 65.44 48 54.88 48 44 C46.68 44 45.36 44 44 44 C44 40.04 44 36.08 44 32 C42.68 32 41.36 32 40 32 C40 30.68 40 29.36 40 28 C38.68 28 37.36 28 36 28 C36 26.68 36 25.36 36 24 C33.36 24 30.72 24 28 24 C28 22.68 28 21.36 28 20 C21.4 20 14.8 20 8 20 Z " transform="translate(2296,240)" />
    <path d="M0 0 C7.92 0 15.84 0 24 0 C24 1.32 24 2.64 24 4 C27.96 4 31.92 4 36 4 C36 5.32 36 6.64 36 8 C37.32 8 38.64 8 40 8 C40 9.32 40 10.64 40 12 C41.32 12 42.64 12 44 12 C44 13.32 44 14.64 44 16 C45.32 16 46.64 16 48 16 C48 18.64 48 21.28 48 24 C49.32 24 50.64 24 52 24 C52 53.04 52 82.08 52 112 C45.4 112 38.8 112 32 112 C32 88.24 32 64.48 32 40 C30.68 40 29.36 40 28 40 C28 37.36 28 34.72 28 32 C26.68 32 25.36 32 24 32 C24 30.68 24 29.36 24 28 C22.68 28 21.36 28 20 28 C20 26.68 20 25.36 20 24 C18.68 24 17.36 24 16 24 C16 22.68 16 21.36 16 20 C9.4 20 2.8 20 -4 20 C-4 21.32 -4 22.64 -4 24 C-6.64 24 -9.28 24 -12 24 C-12 25.32 -12 26.64 -12 28 C-13.32 28 -14.64 28 -16 28 C-16 29.32 -16 30.64 -16 32 C-17.32 32 -18.64 32 -20 32 C-20 37.28 -20 42.56 -20 48 C-21.32 48 -22.64 48 -24 48 C-24 69.12 -24 90.24 -24 112 C-30.6 112 -37.2 112 -44 112 C-44 76.36 -44 40.72 -44 4 C-37.4 4 -30.8 4 -24 4 C-24 5.32 -24 6.64 -24 8 C-22.68 8 -21.36 8 -20 8 C-20 9.32 -20 10.64 -20 12 C-18.68 12 -17.36 12 -16 12 C-16 10.68 -16 9.36 -16 8 C-14.68 8 -13.36 8 -12 8 C-12 6.68 -12 5.36 -12 4 C-8.04 4 -4.08 4 0 4 C0 2.68 0 1.36 0 0 Z " transform="translate(2432,240)" />
    <path d="M0 0 C10.56 0 21.12 0 32 0 C32 1.32 32 2.64 32 4 C34.64 4 37.28 4 40 4 C40 5.32 40 6.64 40 8 C41.32 8 42.64 8 44 8 C44 9.32 44 10.64 44 12 C45.32 12 46.64 12 48 12 C48 13.32 48 14.64 48 16 C49.32 16 50.64 16 52 16 C52 19.96 52 23.92 52 28 C53.32 28 54.64 28 56 28 C56 55.72 56 83.44 56 112 C49.4 112 42.8 112 36 112 C36 109.36 36 106.72 36 104 C34.68 104 33.36 104 32 104 C32 105.32 32 106.64 32 108 C30.68 108 29.36 108 28 108 C28 109.32 28 110.64 28 112 C25.36 112 22.72 112 20 112 C20 113.32 20 114.64 20 116 C8.12 116 -3.76 116 -16 116 C-16 114.68 -16 113.36 -16 112 C-18.64 112 -21.28 112 -24 112 C-24 110.68 -24 109.36 -24 108 C-25.32 108 -26.64 108 -28 108 C-28 106.68 -28 105.36 -28 104 C-29.32 104 -30.64 104 -32 104 C-32 101.36 -32 98.72 -32 96 C-33.32 96 -34.64 96 -36 96 C-36 88.08 -36 80.16 -36 72 C-34.68 72 -33.36 72 -32 72 C-32 69.36 -32 66.72 -32 64 C-30.68 64 -29.36 64 -28 64 C-28 62.68 -28 61.36 -28 60 C-26.68 60 -25.36 60 -24 60 C-24 58.68 -24 57.36 -24 56 C-21.36 56 -18.72 56 -16 56 C-16 54.68 -16 53.36 -16 52 C-13.36 52 -10.72 52 -8 52 C-8 50.68 -8 49.36 -8 48 C6.52 48 21.04 48 36 48 C36 44.04 36 40.08 36 36 C34.68 36 33.36 36 32 36 C32 33.36 32 30.72 32 28 C30.68 28 29.36 28 28 28 C28 26.68 28 25.36 28 24 C26.68 24 25.36 24 24 24 C24 22.68 24 21.36 24 20 C14.76 20 5.52 20 -4 20 C-4 21.32 -4 22.64 -4 24 C-6.64 24 -9.28 24 -12 24 C-12 25.32 -12 26.64 -12 28 C-14.64 28 -17.28 28 -20 28 C-20 26.68 -20 25.36 -20 24 C-21.32 24 -22.64 24 -24 24 C-24 21.36 -24 18.72 -24 16 C-25.32 16 -26.64 16 -28 16 C-28 14.68 -28 13.36 -28 12 C-26.68 12 -25.36 12 -24 12 C-24 10.68 -24 9.36 -24 8 C-21.36 8 -18.72 8 -16 8 C-16 6.68 -16 5.36 -16 4 C-10.72 4 -5.44 4 0 4 C0 2.68 0 1.36 0 0 Z M-4 64 C-4 65.32 -4 66.64 -4 68 C-5.32 68 -6.64 68 -8 68 C-8 69.32 -8 70.64 -8 72 C-9.32 72 -10.64 72 -12 72 C-12 78.6 -12 85.2 -12 92 C-10.68 92 -9.36 92 -8 92 C-8 93.32 -8 94.64 -8 96 C2.56 96 13.12 96 24 96 C24 94.68 24 93.36 24 92 C25.32 92 26.64 92 28 92 C28 90.68 28 89.36 28 88 C29.32 88 30.64 88 32 88 C32 84.04 32 80.08 32 76 C33.32 76 34.64 76 36 76 C36 73.36 36 70.72 36 68 C34.68 68 33.36 68 32 68 C32 66.68 32 65.36 32 64 C20.12 64 8.24 64 -4 64 Z " transform="translate(2540,240)" />
    <path d="M0 0 C7.92 0 15.84 0 24 0 C24 35.64 24 71.28 24 108 C22.68 108 21.36 108 20 108 C20 109.32 20 110.64 20 112 C14.72 112 9.44 112 4 112 C4 110.68 4 109.36 4 108 C2.68 108 1.36 108 0 108 C0 72.36 0 36.72 0 0 Z " transform="translate(1888,244)" />
    <path d="M0 0 C6.6 0 13.2 0 20 0 C20 11.88 20 23.76 20 36 C21.32 36 22.64 36 24 36 C24 51.84 24 67.68 24 84 C25.32 84 26.64 84 28 84 C28 85.32 28 86.64 28 88 C29.32 88 30.64 88 32 88 C32 89.32 32 90.64 32 92 C42.56 92 53.12 92 64 92 C64 90.68 64 89.36 64 88 C65.32 88 66.64 88 68 88 C68 86.68 68 85.36 68 84 C69.32 84 70.64 84 72 84 C72 56.28 72 28.56 72 0 C79.92 0 87.84 0 96 0 C96 34.32 96 68.64 96 104 C94.68 104 93.36 104 92 104 C92 105.32 92 106.64 92 108 C86.72 108 81.44 108 76 108 C76 106.68 76 105.36 76 104 C73.36 104 70.72 104 68 104 C68 105.32 68 106.64 68 108 C65.36 108 62.72 108 60 108 C60 109.32 60 110.64 60 112 C48.12 112 36.24 112 24 112 C24 110.68 24 109.36 24 108 C21.36 108 18.72 108 16 108 C16 106.68 16 105.36 16 104 C14.68 104 13.36 104 12 104 C12 102.68 12 101.36 12 100 C10.68 100 9.36 100 8 100 C8 98.68 8 97.36 8 96 C6.68 96 5.36 96 4 96 C4 93.36 4 90.72 4 88 C2.68 88 1.36 88 0 88 C0 58.96 0 29.92 0 0 Z " transform="translate(2016,244)" />
    <path d="M0 0 C7.92 0 15.84 0 24 0 C24 35.64 24 71.28 24 108 C22.68 108 21.36 108 20 108 C20 109.32 20 110.64 20 112 C18.68 112 17.36 112 16 112 C16 110.68 16 109.36 16 108 C10.72 108 5.44 108 0 108 C0 72.36 0 36.72 0 0 Z " transform="translate(2212,244)" />
  </g>
</svg>